<svg width="52" height="52" viewBox="0 0 52 52" fill="none" xmlns="http://www.w3.org/2000/svg">
<path d="M41.1663 8.66663H10.833C9.1091 8.66663 7.4558 9.35145 6.23681 10.5704C5.01783 11.7894 4.33301 13.4427 4.33301 15.1666V36.8333C4.33301 38.5572 5.01783 40.2105 6.23681 41.4295C7.4558 42.6485 9.1091 43.3333 10.833 43.3333H41.1663C42.8903 43.3333 44.5436 42.6485 45.7625 41.4295C46.9815 40.2105 47.6663 38.5572 47.6663 36.8333V15.1666C47.6663 13.4427 46.9815 11.7894 45.7625 10.5704C44.5436 9.35145 42.8903 8.66663 41.1663 8.66663ZM39.7147 13L25.9997 23.2916L12.2847 13H39.7147ZM41.1663 39H10.833C10.2584 39 9.70727 38.7717 9.30094 38.3654C8.89461 37.959 8.66634 37.4079 8.66634 36.8333V15.7083L24.6997 27.7333C25.0747 28.0146 25.5309 28.1666 25.9997 28.1666C26.4685 28.1666 26.9246 28.0146 27.2997 27.7333L43.333 15.7083V36.8333C43.333 37.4079 43.1047 37.959 42.6984 38.3654C42.2921 38.7717 41.741 39 41.1663 39Z" fill="black"/>
</svg>
