<svg width="49" height="49" viewBox="0 0 49 49" fill="none" xmlns="http://www.w3.org/2000/svg">
<path d="M36.1517 25.0982C35.9623 24.9084 35.7373 24.7579 35.4896 24.6551C35.2419 24.5524 34.9764 24.4995 34.7082 24.4995C34.4401 24.4995 34.1746 24.5524 33.9269 24.6551C33.6792 24.7579 33.4542 24.9084 33.2648 25.0982L30.0104 28.3526C28.5016 27.9034 25.6861 26.8826 23.9017 25.0982C22.1173 23.3138 21.0965 20.4983 20.6473 18.9895L23.9017 15.7351C24.0915 15.5456 24.242 15.3206 24.3447 15.073C24.4474 14.8253 24.5003 14.5598 24.5003 14.2916C24.5003 14.0235 24.4474 13.758 24.3447 13.5103C24.242 13.2626 24.0915 13.0376 23.9017 12.8482L15.735 4.6815C15.5456 4.49174 15.3206 4.34119 15.0729 4.23847C14.8252 4.13576 14.5597 4.08289 14.2916 4.08289C14.0234 4.08289 13.7579 4.13576 13.5102 4.23847C13.2626 4.34119 13.0376 4.49174 12.8481 4.6815L7.31112 10.2185C6.53528 10.9943 6.09837 12.0601 6.1147 13.1483C6.16166 16.0556 6.93137 26.1537 14.8898 34.1121C22.8482 42.0705 32.9463 42.8382 35.8557 42.8872H35.9128C36.9908 42.8872 38.0096 42.4625 38.7814 41.6908L44.3184 36.1538C44.5081 35.9644 44.6587 35.7394 44.7614 35.4917C44.8641 35.244 44.917 34.9785 44.917 34.7103C44.917 34.4422 44.8641 34.1767 44.7614 33.929C44.6587 33.6813 44.5081 33.4563 44.3184 33.2669L36.1517 25.0982ZM35.8924 38.8018C33.3444 38.759 24.6265 38.075 17.7767 31.2232C10.9044 24.3509 10.2389 15.6024 10.198 13.1054L14.2916 9.01188L19.5713 14.2916L16.9315 16.9315C16.6915 17.1713 16.515 17.4671 16.4181 17.7922C16.3211 18.1173 16.3067 18.4614 16.3761 18.7935C16.4251 19.0283 17.6236 24.5959 21.0127 27.9851C24.4019 31.3743 29.9695 32.5727 30.2043 32.6217C30.5362 32.6931 30.8807 32.6798 31.2061 32.5831C31.5315 32.4864 31.8273 32.3094 32.0663 32.0684L34.7082 29.4285L39.988 34.7083L35.8924 38.8018Z" fill="black"/>
</svg>
